<svg width="71" height="71" viewBox="0 0 71 71" fill="none" xmlns="http://www.w3.org/2000/svg">
<path fill-rule="evenodd" clip-rule="evenodd" d="M30.3683 31.529C29.1376 30.7751 27.8427 30.1372 26.502 29.6208C25.3374 31.32 24.6604 33.3765 24.6604 35.5905C24.6604 36.6979 24.8298 37.7659 25.1486 38.7721C25.7215 37.4826 26.4264 36.2281 27.2725 35.0309C28.1931 33.7274 29.2337 32.5589 30.3683 31.529ZM27.0977 28.8328C28.5492 29.3362 29.9498 29.9785 31.2843 30.7448C31.5899 30.497 31.897 30.2623 32.2094 30.0391C30.7845 29.2593 29.2811 28.623 27.7231 28.1447C27.4944 28.3563 27.287 28.5865 27.0977 28.8328ZM28.4032 27.5045C30.0759 27.9486 31.6811 28.5735 33.1956 29.3683C33.539 29.1469 33.8922 28.9351 34.2431 28.7333C32.6292 27.923 30.9342 27.3118 29.1871 26.8977C28.9092 27.0795 28.6448 27.2849 28.4032 27.5045ZM29.9917 26.3919C31.8253 26.7547 33.612 27.3545 35.3036 28.1817L35.3057 28.1807C36.995 27.354 38.7786 26.7563 40.6093 26.395C39.0547 25.4754 37.2356 24.9556 35.2953 24.9556C33.36 24.9556 31.5448 25.4728 29.9917 26.3919ZM41.4124 26.9005C39.6638 27.3123 37.9664 27.9245 36.3574 28.7362C36.7081 28.9348 37.0548 29.1425 37.405 29.3606C38.9285 28.5699 40.529 27.9473 42.1909 27.5032C41.9461 27.2854 41.6854 27.0826 41.4124 26.9005ZM42.8759 28.1483C41.3168 28.6277 39.8218 29.259 38.3966 30.0352C38.7056 30.2636 39.0174 30.5021 39.3235 30.75C40.65 29.9811 42.0474 29.3414 43.4998 28.8348C43.3084 28.5917 43.102 28.3625 42.8759 28.1483ZM44.0954 29.6237C42.7552 30.1388 41.4642 30.7746 40.2377 31.5305C41.3707 32.5636 42.4089 33.7303 43.3278 35.0309C44.1736 36.2281 44.8788 37.4826 45.4504 38.7609C45.7635 37.7499 45.9305 36.6896 45.9305 35.5905C45.9305 33.3789 45.2548 31.3246 44.0954 29.6237ZM43.1835 36.9473C42.0648 35.1342 40.7284 33.5366 39.2305 32.1676C38.8876 32.403 38.5499 32.6475 38.2164 32.9021C40.7388 35.2469 42.7723 38.1904 44.0682 41.6175C44.3642 41.1746 44.6336 40.7144 44.8646 40.2374C44.401 39.1165 43.8426 38.0151 43.1835 36.9473ZM37.2742 32.0853C37.6078 31.841 37.9512 31.6049 38.3031 31.3757C37.9986 31.1221 37.6849 30.88 37.363 30.6453C37.0062 30.8619 36.6578 31.0895 36.3111 31.3228L36.3222 31.3309C36.6469 31.5735 36.9657 31.8245 37.2742 32.0853ZM35.3018 30.6078C35.6574 30.3729 36.0153 30.1489 36.3647 29.9404L36.2588 29.8761C35.9346 29.6793 35.6169 29.4864 35.299 29.3023C34.9509 29.5051 34.6028 29.7177 34.2506 29.9433C34.5992 30.158 34.9514 30.3786 35.3018 30.6078ZM34.2864 31.3241C33.9437 31.0903 33.598 30.8639 33.2479 30.6415C32.9254 30.8722 32.6074 31.1177 32.2941 31.3726C32.6416 31.5992 32.9853 31.8351 33.3243 32.0806C33.6407 31.8196 33.9616 31.5668 34.2864 31.3241ZM35.3021 32.0664C34.9768 32.3191 34.6539 32.5822 34.3369 32.8562C34.6645 33.1251 34.9869 33.4014 35.301 33.686C35.6154 33.3998 35.9381 33.1232 36.2678 32.8581C35.9519 32.5872 35.6284 32.323 35.3021 32.0664ZM35.3 35.5636C33.8746 37.097 32.6318 38.8469 31.6233 40.797C30.9424 42.1134 30.3978 43.4646 29.9853 44.8207C31.5487 45.7093 33.3618 46.2257 35.2953 46.2257C37.2315 46.2257 39.0469 45.708 40.6135 44.8189C40.2025 43.4646 39.6578 42.1134 38.977 40.797C37.9685 38.8469 36.7257 37.097 35.3 35.5636ZM29.1348 42.6257C30.3502 39.5247 32.1457 36.8227 34.3483 34.5961C34.0341 34.2959 33.7125 34.0045 33.3841 33.7225C30.8189 36.1877 28.7766 39.2701 27.5125 42.8411C27.8686 43.22 28.2537 43.577 28.6668 43.9115C28.8116 43.486 28.9667 43.055 29.1348 42.6257ZM36.2481 34.5966C38.4507 36.823 40.2465 39.5252 41.4616 42.6262C41.6299 43.0553 41.7848 43.4865 41.9296 43.9119C42.3426 43.5774 42.7277 43.2205 43.0838 42.8414C41.82 39.2706 39.7775 36.188 37.2123 33.723C36.8839 34.0051 36.562 34.2964 36.2481 34.5966ZM26.5282 41.6244C27.8238 38.1977 29.8576 35.2539 32.38 32.9093C32.0465 32.6545 31.7085 32.41 31.3661 32.1749C29.868 33.5436 28.5316 35.1412 27.4128 36.9546C26.7537 38.0221 26.1954 39.1235 25.7321 40.2446C25.9628 40.7217 26.2322 41.1819 26.5282 41.6244ZM35.3479 24.0989C41.9107 24.0989 47.2632 29.4515 47.2632 36.0142C47.2632 36.7991 47.1867 37.5667 47.0406 38.3099L51.8792 37.0922C51.6058 36.918 51.2705 36.7312 50.8034 36.5283C50.3173 36.3341 49.7308 36.13 48.8533 36.0142C49.024 35.8775 49.2441 35.8039 49.5013 35.77C50.3632 35.6009 50.9195 35.6597 51.7619 35.8601L51.7859 35.8658C52.0632 35.932 52.3134 35.9916 52.6044 35.9896C53.4792 35.9831 54.5247 35.5866 55.1688 34.7318C54.266 35.121 53.3844 35.1078 52.7971 34.9304C52.7062 34.9032 52.6228 34.869 52.5378 34.8268C52.4885 34.8024 52.4391 34.7777 52.3891 34.7526C51.9789 34.5468 51.5248 34.3189 50.6936 34.1043C50.1832 33.9885 49.5717 33.8784 48.6873 33.9015C48.8344 33.7399 49.0401 33.6327 49.2889 33.5588C50.1135 33.2571 50.6724 33.2281 51.5356 33.2944L51.5631 33.2965C51.8463 33.3183 52.1021 33.338 52.3879 33.2905C53.2513 33.1471 54.2217 32.5918 54.7241 31.6468C53.8933 32.1725 53.0208 32.2974 52.4127 32.2142C52.3187 32.2013 52.2309 32.1806 52.1403 32.1523C52.0879 32.136 52.0353 32.1193 51.9821 32.1024C51.5449 31.9633 51.0606 31.8093 50.2057 31.7271C49.6836 31.6927 49.0626 31.6797 48.1924 31.8408C48.3126 31.658 48.4991 31.5199 48.7332 31.4083C49.5005 30.981 50.0477 30.8652 50.9107 30.7956L50.9411 30.7931C51.2231 30.7703 51.4778 30.7498 51.7521 30.6583C52.5824 30.3817 53.4541 29.6814 53.8024 28.6696C53.0641 29.3189 52.2219 29.5786 51.6081 29.5913C51.5133 29.5934 51.4232 29.5866 51.3294 29.5732C51.2765 29.5654 51.2233 29.5573 51.1696 29.5491L51.1692 29.549C50.7146 29.4796 50.2118 29.4028 49.3524 29.4556C48.8311 29.5033 48.2155 29.5877 47.3816 29.8829C47.4714 29.6835 47.6341 29.518 47.8477 29.3712C48.5389 28.8291 49.0616 28.6289 49.9027 28.4251L49.9282 28.419C50.2049 28.3521 50.4545 28.2918 50.7123 28.1581C51.489 27.7552 52.2402 26.9272 52.4262 25.8732C51.7984 26.6296 51.0073 27.0181 50.4033 27.1269C50.3098 27.1437 50.22 27.1512 50.1252 27.1523C50.0709 27.1529 50.0165 27.1532 49.9613 27.1536C49.5018 27.1563 48.9934 27.1594 48.1538 27.3457C47.6465 27.4742 47.0519 27.6536 46.2742 28.0758C46.3319 27.865 46.4666 27.6762 46.6546 27.4975C47.2526 26.8539 47.7374 26.5747 48.5366 26.2417L48.5633 26.2306C48.8248 26.1217 49.0612 26.0233 49.2941 25.8514C49.9983 25.3319 50.611 24.3965 50.6297 23.3261C50.1278 24.1719 49.407 24.6793 48.8277 24.881C48.7378 24.9124 48.6503 24.9339 48.5568 24.9497C48.5027 24.9589 48.4483 24.9679 48.3932 24.9769L48.3929 24.977C47.9402 25.0515 47.4388 25.1341 46.6404 25.449C46.1592 25.6554 45.5998 25.9257 44.8977 26.4644C44.9218 26.2471 45.0254 26.0394 45.1831 25.8335C45.6728 25.1045 46.1082 24.7528 46.8452 24.2988L46.8698 24.2838C47.1112 24.1353 47.3294 24.001 47.5326 23.7949C48.1469 23.1715 48.6055 22.1517 48.4566 21.0919C48.0935 22.0056 47.4608 22.6194 46.9201 22.9094C46.8364 22.9542 46.7533 22.9892 46.6634 23.0195C46.6116 23.037 46.5595 23.0543 46.5067 23.0718C46.0709 23.2163 45.5884 23.3764 44.8485 23.8125C44.4057 24.0917 43.8955 24.4462 43.2864 25.088C43.276 24.8696 43.3459 24.6482 43.4695 24.4203C43.839 23.6237 44.214 23.2083 44.871 22.6445L44.8905 22.6279C45.1068 22.4427 45.3021 22.2754 45.4711 22.039C45.98 21.3273 46.2737 20.2484 45.9608 19.225C45.7451 20.1845 45.2163 20.8894 44.7276 21.2605C44.6519 21.318 44.575 21.3654 44.4911 21.4094C44.4424 21.435 44.3934 21.4604 44.3437 21.4861L44.3436 21.4861C43.9361 21.6969 43.4848 21.9303 42.8228 22.4767C42.4289 22.8216 41.9806 23.2515 41.4795 23.9808C41.4349 23.7666 41.4694 23.5372 41.5559 23.2925C41.7962 22.4477 42.1015 21.9787 42.6622 21.3193L42.6793 21.2993C42.8639 21.0826 43.0303 20.8871 43.1602 20.6276C43.5518 19.8449 43.6728 18.7334 43.2037 17.7713C43.1408 18.7526 42.7288 19.5318 42.3041 19.9749C42.2385 20.0433 42.1699 20.1021 42.094 20.1591C42.0501 20.1918 42.0058 20.2244 41.9609 20.2574L41.9607 20.2575C41.591 20.5295 41.1816 20.8306 40.6127 21.4739C40.2778 21.8761 39.9023 22.371 39.5213 23.1697C39.4442 22.9651 39.4421 22.7331 39.4892 22.478C39.5946 21.606 39.8228 21.0953 40.2734 20.3559L40.2861 20.3352C40.4349 20.0918 40.5691 19.8723 40.657 19.5948C40.9214 18.7606 40.867 17.6436 40.2532 16.767C40.3444 17.7462 40.0595 18.5801 39.7094 19.0841C39.6552 19.162 39.5967 19.2309 39.5307 19.2988C39.4925 19.3379 39.4539 19.3769 39.4148 19.4165C39.0922 19.7431 38.7349 20.1047 38.2736 20.8296C38.0055 21.2792 37.7121 21.8266 37.4607 22.6751C37.3524 22.4852 37.3141 22.2563 37.3208 21.9968C37.2884 21.1191 37.4337 20.5789 37.7634 19.7781L37.7739 19.7526C37.8822 19.4901 37.98 19.253 38.0229 18.9665C38.1537 18.1012 37.9253 17.0066 37.182 16.2366C37.4252 17.1894 37.2742 18.0577 37.0072 18.6101C36.9658 18.6959 36.9191 18.773 36.8642 18.8502C36.8324 18.8952 36.8001 18.9403 36.7674 18.9859L36.767 18.9864C36.4998 19.3591 36.2038 19.772 35.862 20.5587C35.6678 21.0445 35.4637 21.6314 35.3479 22.5088C35.2112 22.3381 35.1376 22.118 35.1037 21.8608C34.9343 20.999 34.9934 20.4424 35.1938 19.6002L35.2007 19.5711C35.2662 19.2958 35.3253 19.047 35.3233 18.7578C35.3168 17.8827 34.9203 16.8374 34.0655 16.1934C34.4547 17.0962 34.4415 17.9775 34.2641 18.5648C34.2366 18.656 34.2025 18.7396 34.1605 18.8243C34.1361 18.8736 34.1114 18.923 34.0863 18.973C33.8805 19.3832 33.6526 19.8373 33.438 20.6685C33.3219 21.1789 33.2121 21.7904 33.2352 22.6751C33.0733 22.5277 32.9664 22.3218 32.8925 22.0732C32.5906 21.2486 32.5618 20.6897 32.6279 19.8266L32.6296 19.8042V19.8042C32.6517 19.519 32.6717 19.262 32.6242 18.9743C32.4808 18.1111 31.9255 17.1404 30.9805 16.638C31.5062 17.4688 31.6311 18.3413 31.5479 18.9494C31.535 19.0434 31.5143 19.1315 31.486 19.2218C31.4696 19.2745 31.4528 19.3273 31.4358 19.3808L31.4358 19.381C31.2967 19.818 31.1427 20.3021 31.0608 21.1562C31.0264 21.6785 31.0134 22.2995 31.1745 23.1697C30.9917 23.0495 30.8536 22.8631 30.742 22.629C30.3147 21.8616 30.1989 21.3141 30.1293 20.4512L30.127 20.4234C30.1042 20.1404 30.0835 19.8849 29.992 19.6101C29.7154 18.7798 29.0151 17.9083 28.0033 17.5597C28.6523 18.2981 28.9123 19.1403 28.925 19.7538C28.9271 19.8488 28.9204 19.939 28.9066 20.0327C28.8988 20.0863 28.8906 20.14 28.8823 20.1945V20.1945C28.8131 20.6487 28.7366 21.1513 28.7893 22.0097C28.8367 22.5311 28.9211 23.1464 29.2164 23.9808C29.0172 23.8907 28.8517 23.7281 28.7046 23.5144C28.1628 22.8232 27.9627 22.3006 27.7588 21.4592L27.7513 21.4279L27.7513 21.4279C27.6847 21.1537 27.6246 20.9059 27.4918 20.6498C27.0889 19.8732 26.2606 19.1216 25.2069 18.9357C25.9633 19.5637 26.3518 20.3549 26.4606 20.9588C26.4774 21.0523 26.4849 21.1422 26.486 21.2369C26.4866 21.2916 26.4869 21.3464 26.4873 21.402C26.49 21.8612 26.493 22.3694 26.6792 23.2083C26.8079 23.7156 26.9873 24.3105 27.4095 25.088C27.1987 25.0302 27.0096 24.8955 26.8312 24.7075C26.1876 24.1095 25.9084 23.625 25.5754 22.8255L25.5653 22.8012C25.456 22.5387 25.3572 22.3017 25.1851 22.068C24.6653 21.3638 23.7302 20.7514 22.6598 20.7325C23.5056 21.2341 24.0127 21.9551 24.2147 22.5344C24.2458 22.6243 24.2676 22.7118 24.2834 22.8051C24.2924 22.8583 24.3012 22.9117 24.3101 22.9659L24.3101 22.9661C24.3847 23.4198 24.4671 23.9216 24.7827 24.722C24.9891 25.2029 25.2594 25.7621 25.7979 26.4644C25.5808 26.4403 25.3729 26.3367 25.1672 26.179C24.4382 25.689 24.0863 25.254 23.6325 24.5166L23.6168 24.491C23.4685 24.2503 23.3344 24.0324 23.1283 23.8296C22.5052 23.2153 21.4854 22.7566 20.4256 22.9055C21.3393 23.2686 21.9531 23.9013 22.2431 24.4421C22.2879 24.5257 22.3229 24.6091 22.3532 24.6987C22.3707 24.7505 22.388 24.8026 22.4055 24.8554L22.4055 24.8554C22.55 25.2912 22.7101 25.7737 23.1462 26.5136C23.4254 26.9565 23.7799 27.4667 24.4217 28.0758C24.2033 28.0861 23.9819 28.0165 23.754 27.8927C22.9571 27.5231 22.5417 27.1481 21.9782 26.4911L21.9589 26.4685C21.7745 26.2535 21.608 26.0592 21.3727 25.891C20.661 25.3819 19.5821 25.0885 18.5587 25.4013C19.5179 25.617 20.2231 26.1459 20.5942 26.6346C20.6515 26.7102 20.6991 26.7868 20.7431 26.8707C20.7682 26.9186 20.7931 26.9668 20.8183 27.0156C21.0294 27.424 21.2628 27.8759 21.8104 28.5396C22.1551 28.9333 22.585 29.3815 23.3143 29.8829C23.1003 29.9269 22.8706 29.8928 22.6262 29.8063C21.7814 29.5659 21.3124 29.2606 20.653 28.6997L20.6315 28.6814C20.4154 28.4975 20.2202 28.3315 19.961 28.2019C19.1786 27.8103 18.0669 27.6891 17.105 28.1584C18.0863 28.2216 18.8655 28.6334 19.3084 29.0581C19.377 29.1236 19.4358 29.1922 19.4925 29.2681C19.5249 29.3116 19.5572 29.3555 19.5899 29.3999L19.59 29.4001C19.8622 29.7701 20.1635 30.1796 20.8076 30.7492C21.2098 31.0841 21.7047 31.4596 22.5034 31.8408C22.2988 31.918 22.0668 31.92 21.8117 31.8729C20.9397 31.7675 20.4287 31.5393 19.6896 31.0885L19.6671 31.0747C19.4244 30.9266 19.2053 30.7929 18.9285 30.7052C18.0943 30.4408 16.9773 30.4949 16.1007 31.1089C17.0799 31.0178 17.9138 31.3026 18.4178 31.653C18.4957 31.7069 18.5646 31.7654 18.6325 31.8317C18.6718 31.8701 18.7111 31.909 18.751 31.9483L18.751 31.9483C19.0774 32.2706 19.439 32.6276 20.163 33.0885C20.6126 33.3566 21.1601 33.65 22.0085 33.9015C21.8187 34.0097 21.5897 34.0481 21.3305 34.0416C20.4528 34.0737 19.9126 33.9282 19.1118 33.5987L19.0885 33.5891C18.8252 33.4805 18.5875 33.3825 18.3002 33.339C17.435 33.2085 16.3403 33.4366 15.5703 34.1804C16.5231 33.937 17.3914 34.0879 17.9438 34.3549C18.0293 34.3964 18.1067 34.443 18.1839 34.4979C18.2286 34.5295 18.2733 34.5616 18.3185 34.594L18.3187 34.5942C18.6916 34.8616 19.1047 35.1579 19.8924 35.5001C20.3782 35.6944 20.9651 35.8987 21.8422 36.0142C21.6718 36.151 21.4517 36.2245 21.1945 36.2587C20.3327 36.4278 19.7761 36.3688 18.9339 36.1683L18.91 36.1626C18.6326 36.0965 18.3825 36.0368 18.0915 36.0388C17.5517 36.0428 16.9473 36.1952 16.4121 36.512L23.6579 38.3234C23.5101 37.576 23.4326 36.8039 23.4326 36.0142C23.4326 29.4515 28.7852 24.0989 35.3479 24.0989ZM33.036 47.7037L34.253 52.5719C34.432 52.2937 34.6243 51.952 34.8338 51.4698C35.0281 50.9838 35.2322 50.3971 35.3479 49.5197C35.4844 49.6904 35.5582 49.9105 35.5921 50.1677C35.7612 51.0295 35.7022 51.5859 35.502 52.4283L35.4958 52.4545C35.4298 52.7309 35.3703 52.9806 35.3725 53.2707C35.3765 53.8107 35.5291 54.4156 35.8462 54.951L37.658 47.704C36.9103 47.8519 36.1379 47.9295 35.3479 47.9295C34.5573 47.9295 33.7842 47.8518 33.036 47.7037Z" fill="#2F80ED"/>
<path d="M31.3783 31.3724L35.5627 14.6348L39.7471 31.3724L56.4847 35.5568L39.7471 39.7412L35.5627 56.4789L31.3783 39.7412L14.6406 35.5568L31.3783 31.3724Z" fill="#2F80ED"/>
<path d="M35.5625 35.5586L39.7469 39.743L35.5625 56.4806V35.5586Z" fill="#F9F9F9"/>
<path d="M35.5625 35.5586L31.3781 31.3742L35.5625 14.6365L35.5625 35.5586Z" fill="#F9F9F9"/>
<path d="M35.5625 35.5586L31.3781 39.743L14.6404 35.5586L35.5625 35.5586Z" fill="#F9F9F9"/>
<path d="M35.5625 35.5586L39.7469 31.3742L56.4846 35.5586L35.5625 35.5586Z" fill="#F9F9F9"/>
<path opacity="0.9" fill-rule="evenodd" clip-rule="evenodd" d="M35.5 71C55.1061 71 71 55.1061 71 35.5C71 15.8939 55.1061 0 35.5 0C15.8939 0 0 15.8939 0 35.5C0 55.1061 15.8939 71 35.5 71ZM35.6127 57.2508C47.6877 57.2508 57.4762 47.4623 57.4762 35.3873C57.4762 23.3123 47.6877 13.5238 35.6127 13.5238C23.5377 13.5238 13.7492 23.3123 13.7492 35.3873C13.7492 47.4623 23.5377 57.2508 35.6127 57.2508ZM9.63576 17.803L13.8823 21.2493L14.6493 20.3042L12.8725 18.8623L13.0208 18.6796C13.4401 18.1629 13.9641 18.2642 14.5605 18.5079C14.6533 18.5441 14.7458 18.5818 14.8385 18.6196L14.8386 18.6197H14.8386C15.1424 18.7437 15.4467 18.8678 15.7589 18.937L16.5974 17.9037C16.1071 17.7857 15.626 17.602 15.1442 17.4181C15.0505 17.3823 14.9567 17.3465 14.8629 17.3112C14.2094 17.0734 13.6319 17.0123 13.0548 17.4531L12.3662 14.4385L11.4203 15.6041L12.2448 18.2065L12.1732 18.2947L10.4028 16.8579L9.63576 17.803ZM20.0803 14.7888L17.4032 10.0478L18.4701 9.44534L19.4077 11.1058C19.537 11.0048 19.737 10.8639 19.9137 10.7641C20.8958 10.2096 22.0755 10.1864 22.6819 11.2604C22.9332 11.7055 22.9765 12.1284 22.8789 12.5003C22.683 13.226 21.9644 13.8181 21.2719 14.2092C20.7491 14.5044 20.3405 14.6885 20.0803 14.7888ZM20.225 11.6786C20.0837 11.7584 19.9645 11.8443 19.8665 11.9183L20.7163 13.4233C20.8131 13.3966 20.9513 13.3278 21.0927 13.2481C21.566 12.9807 21.8626 12.4498 21.5674 11.927C21.2602 11.3829 20.6348 11.4472 20.225 11.6786ZM24.0138 12.5957L21.3246 7.83344L22.3986 7.22699L25.0878 11.9892L24.0138 12.5957ZM30.1108 10.4623L31.3236 10.2874L31.0432 8.34388C31.1591 8.35174 31.3049 8.33892 31.4654 8.31577C32.1882 8.2115 32.7801 7.93757 33.1421 7.49183C33.4284 7.1472 33.5312 6.66507 33.4545 6.13503C33.3781 5.60497 33.0885 5.18767 32.6956 4.96558C32.2926 4.72858 31.7336 4.66163 30.9788 4.77055C30.2318 4.87829 29.7087 5.00293 29.3406 5.12162L30.1108 10.4623ZM30.6772 5.80602C30.7619 5.76919 30.9283 5.7288 31.1692 5.69404C31.7877 5.60485 32.1758 5.85218 32.2477 6.3501C32.3264 6.89624 31.9725 7.28343 31.3218 7.37726C31.1372 7.40392 31.0155 7.41326 30.9078 7.40422L30.6772 5.80602ZM38.8129 10.0689L39.753 4.68124L43.0064 5.24893L42.8319 6.24811L40.7937 5.89244L40.028 10.2809L38.8129 10.0689ZM49.3777 7.37291L46.6209 12.0682C46.8384 12.2428 47.2026 12.5038 47.7206 12.8078C48.4062 13.2104 49.279 13.5347 50.005 13.3399C50.3757 13.2376 50.7197 12.988 50.9787 12.5471C51.603 11.4835 50.9908 10.4748 50.0183 9.9038C49.8434 9.80109 49.6211 9.69883 49.4687 9.63765L50.4343 7.99327L49.3777 7.37291ZM48.9963 10.4423C49.1095 10.49 49.2438 10.5499 49.3835 10.6321C49.7895 10.8704 50.1589 11.379 49.8427 11.9178C49.5386 12.4356 48.9305 12.4456 48.4617 12.1703C48.3217 12.0881 48.193 12.0031 48.1213 11.9328L48.9963 10.4423ZM53.2613 9.65305L50.4923 14.3693L51.5557 14.9937L54.3247 10.2775L53.2613 9.65305ZM59.7683 16.737C59.5052 16.4072 59.0785 16.1455 58.7657 16.0006L59.28 15.227C59.684 15.3822 60.2096 15.6896 60.6852 16.2859C61.429 17.2184 61.3997 18.1447 60.7717 18.6456C60.2326 19.0757 59.5954 18.9925 59.0801 18.5938L59.0675 18.6039C59.4164 19.1975 59.4178 19.954 58.8468 20.4094C57.8891 21.1735 56.795 20.4788 56.1576 19.6795C55.8033 19.2355 55.5139 18.6775 55.4336 18.1603L56.344 17.7662C56.3943 18.0375 56.5899 18.608 56.9086 19.0076C57.2984 19.4961 57.7455 19.6273 58.1008 19.3439C58.57 18.9695 58.2705 18.3988 57.9468 17.9928L57.6229 17.5868L58.3397 17.015L58.6636 17.421C59.0127 17.8587 59.4725 18.0317 59.8149 17.7585C60.0942 17.5358 60.0971 17.1493 59.7683 16.737ZM16.6294 52.4852L12.7101 56.2645C12.8725 56.4912 13.1474 56.8349 13.5698 57.2729C14.15 57.8745 14.8638 58.3812 15.5629 58.4398C15.9928 58.4648 16.4315 58.3235 16.8112 57.9574C17.2493 57.535 17.3842 57.0554 17.3181 56.5893C17.2528 56.0774 16.9522 55.5669 16.5692 55.1697C16.4227 55.0178 16.2252 54.8363 16.0781 54.7189L16.7557 54.0655L18.4229 55.7945L19.1472 55.096L16.6294 52.4852ZM15.4239 55.3498H15.424H15.424C15.5371 55.4438 15.6501 55.5376 15.7458 55.6367C15.9486 55.847 16.11 56.1198 16.1394 56.3956C16.1641 56.6199 16.0969 56.8426 15.8983 57.034C15.7056 57.2199 15.4746 57.2961 15.251 57.2862C14.9817 57.2641 14.7032 57.1156 14.4948 56.8996C14.3765 56.7768 14.2697 56.6544 14.1915 56.5383L15.4239 55.3498ZM22.2035 63.6577L22.5191 62.2262L21.1515 61.4632L20.1274 62.4994L19.0149 61.8786L23.1323 57.9132L24.5493 58.7039L23.3727 64.31L22.2035 63.6577ZM22.6069 59.8873L21.7581 60.7424L22.8138 61.3314L23.0815 60.1521C23.1428 59.8751 23.2319 59.5483 23.3103 59.2595H23.3105L23.311 59.2577L23.3274 59.1973C23.3367 59.1631 23.3457 59.1295 23.3547 59.0966L23.3405 59.0887C23.2488 59.1863 23.1501 59.2965 23.0498 59.4085L23.0495 59.4087V59.409L23.0493 59.4092L23.0491 59.4094C22.8992 59.5767 22.7457 59.748 22.6069 59.8873ZM27.766 60.1841L29.1258 62.9353C28.3826 62.9319 27.9413 63.3755 27.5759 64.0237C27.4935 64.1703 27.4119 64.3224 27.3296 64.4763C27.1353 64.8386 26.9356 65.2111 26.7021 65.5488L27.9208 65.7848C28.1043 65.5323 28.2596 65.2197 28.4065 64.924L28.418 64.9008C28.4568 64.8226 28.4951 64.7459 28.5332 64.672C28.8195 64.1324 29.1686 63.6958 29.8218 63.8222L30.0129 63.8594L29.5779 66.1057L30.7489 66.3327L31.1841 64.0862L31.3673 64.1216C32.0284 64.2498 32.1891 64.7851 32.2455 65.391C32.2523 65.4647 32.2588 65.5404 32.2651 65.6173L32.2653 65.6182C32.2946 65.9635 32.326 66.3343 32.406 66.6537L33.6326 66.8912C33.5445 66.5227 33.5068 66.1402 33.4689 65.7557V65.7555C33.448 65.5429 33.427 65.3299 33.3975 65.1183C33.3087 64.3819 33.0617 63.7803 32.3442 63.5587L34.6408 61.5158L33.2307 61.2426L31.4604 63.2139L31.3568 63.1938L31.7888 60.9633L30.6179 60.7366L30.1858 62.9671L30.0824 62.947L29.176 60.4573L27.766 60.1841ZM37.3543 66.6837L36.5037 61.3059L37.7138 61.1145L38.0118 62.998C38.1682 62.9486 38.4049 62.8864 38.6053 62.8548C39.7194 62.6786 40.8327 63.0692 41.0254 64.2875C41.1052 64.7923 40.9979 65.2037 40.7765 65.5181C40.3393 66.1294 39.4589 66.433 38.6734 66.5572C38.0803 66.651 37.6332 66.6807 37.3543 66.6837ZM38.5773 63.8204C38.4171 63.8457 38.2753 63.8844 38.1577 63.9196L38.4277 65.6268C38.5275 65.6356 38.6813 65.6196 38.8415 65.5941C39.3784 65.5091 39.842 65.1153 39.7481 64.5223C39.6505 63.9052 39.0421 63.7467 38.5773 63.8204ZM41.8064 66.0041L40.9519 60.6022L42.1699 60.4095L43.0244 65.8114L41.8064 66.0041ZM50.3347 61.3884C50.1576 61.5958 49.828 61.8435 49.4875 62.0152C48.5092 62.5082 47.6191 62.1845 47.1262 61.2063C46.5785 60.1192 46.993 59.2471 47.8626 58.8087C48.2611 58.6079 48.6163 58.5378 48.8814 58.5225L48.6749 57.5361C48.4245 57.526 47.9349 57.6364 47.3624 57.925C45.8843 58.6699 45.1598 60.1891 45.9997 61.8556C46.7009 63.247 48.1035 63.8666 49.792 63.0158C50.3789 62.72 50.7842 62.3702 50.9322 62.1775L50.3347 61.3884ZM54.2124 59.9716L50.3958 56.0886L51.2697 55.2297L52.6063 56.5897C52.705 56.4585 52.8616 56.2705 53.0061 56.1283C53.8106 55.3376 54.9439 55.009 55.8083 55.8885C56.1666 56.253 56.3181 56.6503 56.3206 57.0346C56.3199 57.7863 55.7796 58.5448 55.2125 59.1024C54.7845 59.5232 54.4376 59.8072 54.2124 59.9716ZM53.5444 56.9305C53.4287 57.0443 53.3359 57.1582 53.2604 57.2551L54.4721 58.4878C54.5584 58.4368 54.6741 58.3345 54.7899 58.2207C55.1776 57.8398 55.3261 57.2499 54.9053 56.8216C54.4671 56.3763 53.88 56.6005 53.5444 56.9305ZM57.4413 56.832L53.6075 52.9317L54.4872 52.0671L58.321 55.9676L57.4413 56.832Z" fill="#2F80ED"/>
</svg>
