<svg width="595" height="568" viewBox="0 0 595 568" fill="none" xmlns="http://www.w3.org/2000/svg">
<g opacity="0.3">
<rect x="-407.51" y="440.557" width="1496" height="130" transform="rotate(-20.098 -407.51 440.557)" stroke="#E2B93B" stroke-width="7"/>
<path d="M38.0786 366.427L30.3416 369.258L29.635 330.795L38.9393 327.39L63.207 357.232L55.4701 360.063L37.276 336.847L37.0092 336.945L38.0786 366.427ZM32.6835 353.181L50.9587 346.494L53.0209 352.13L34.7457 358.817L32.6835 353.181ZM67.3173 355.728L54.8217 321.579L62.0418 318.937L67.1974 333.027L81.8543 327.664L76.6986 313.574L83.902 310.938L96.3976 345.087L89.1942 347.723L84.0325 333.617L69.3756 338.98L74.5373 353.086L67.3173 355.728ZM102.35 342.909L89.8548 308.76L97.0749 306.118L102.23 320.208L116.887 314.845L111.732 300.755L118.935 298.119L131.431 332.268L124.227 334.904L119.066 320.798L104.409 326.161L109.57 340.267L102.35 342.909ZM141.239 329.209L139.092 323.339L140.942 322.662C141.865 322.325 142.569 321.941 143.055 321.511C143.536 321.07 143.863 320.566 144.033 320C144.211 319.418 144.293 318.745 144.278 317.982L144.286 316.712L122.887 296.673L130.357 293.94L144.544 307.807L145.114 288.54L152.484 285.843L150.755 317.597C150.652 319.072 150.41 320.496 150.031 321.87C149.662 323.24 149 324.478 148.043 325.585C147.087 326.691 145.675 327.586 143.807 328.269L141.239 329.209ZM167.035 319.241L164.912 313.438L165.848 313.001C167.057 312.445 167.89 311.604 168.348 310.479C168.801 309.342 168.876 307.771 168.57 305.765C168.272 303.744 167.599 301.129 166.551 297.92L161.559 282.523L184.737 274.042L197.232 308.191L190.212 310.76L179.834 282.396L170.379 285.856L174.196 297.94C175.418 301.829 176.105 305.12 176.258 307.811C176.422 310.499 175.921 312.712 174.754 314.45C173.599 316.183 171.648 317.553 168.902 318.557L167.035 319.241ZM190.689 271.864L197.893 269.228L205.751 290.705L206.035 290.601L212.933 263.724L219.253 261.412L231.748 295.561L224.528 298.203L216.664 276.71L216.414 276.801L209.438 303.725L203.185 306.013L190.689 271.864ZM237.714 293.379L225.218 259.229L238.691 254.299C241.281 253.352 243.669 253.039 245.854 253.361C248.035 253.672 249.923 254.526 251.517 255.921C253.119 257.301 254.335 259.125 255.165 261.393C255.994 263.661 256.237 265.841 255.894 267.933C255.55 270.025 254.627 271.894 253.124 273.541C251.633 275.183 249.575 276.484 246.952 277.444L238.365 280.586L236.247 274.8L243.668 272.085C245.057 271.577 246.115 270.919 246.84 270.111C247.573 269.288 248.005 268.368 248.136 267.349C248.275 266.315 248.139 265.237 247.728 264.114C247.313 262.98 246.723 262.074 245.958 261.396C245.2 260.703 244.28 260.29 243.198 260.156C242.111 260.012 240.868 260.196 239.467 260.709L234.598 262.49L244.934 290.737L237.714 293.379ZM293.249 253.697C294.612 257.421 295.065 260.847 294.609 263.976C294.164 267.101 292.982 269.796 291.063 272.061C289.152 274.311 286.689 275.987 283.677 277.09C280.642 278.2 277.666 278.507 274.75 278.012C271.833 277.516 269.197 276.218 266.84 274.118C264.483 272.018 262.626 269.112 261.267 265.399C259.905 261.675 259.446 258.251 259.891 255.126C260.335 252.001 261.514 249.314 263.426 247.064C265.334 244.803 267.805 243.117 270.84 242.007C273.852 240.904 276.817 240.601 279.733 241.097C282.657 241.577 285.297 242.868 287.654 244.967C290.021 247.063 291.886 249.973 293.249 253.697ZM285.929 256.375C285.046 253.963 283.941 252.061 282.612 250.669C281.294 249.273 279.829 248.385 278.215 248.005C276.601 247.625 274.922 247.754 273.176 248.393C271.431 249.031 270.065 250.017 269.077 251.349C268.09 252.68 267.538 254.307 267.422 256.227C267.316 258.144 267.705 260.309 268.587 262.721C269.47 265.133 270.57 267.037 271.888 268.433C273.216 269.825 274.688 270.711 276.301 271.091C277.915 271.471 279.595 271.342 281.34 270.703C283.085 270.065 284.452 269.079 285.439 267.748C286.426 266.416 286.973 264.791 287.078 262.875C287.195 260.954 286.812 258.788 285.929 256.375ZM304.845 268.815L292.35 234.665L306.023 229.662C308.535 228.743 310.767 228.349 312.718 228.479C314.669 228.61 316.309 229.182 317.638 230.196C318.962 231.198 319.938 232.555 320.564 234.267C321.053 235.601 321.215 236.872 321.051 238.079C320.884 239.274 320.451 240.365 319.753 241.352C319.063 242.323 318.171 243.16 317.08 243.862L317.202 244.195C318.522 243.775 319.874 243.696 321.256 243.959C322.649 244.219 323.925 244.829 325.084 245.792C326.239 246.743 327.123 248.058 327.737 249.737C328.4 251.549 328.542 253.331 328.162 255.083C327.79 256.82 326.881 258.42 325.437 259.881C323.993 261.342 321.992 262.54 319.435 263.476L304.845 268.815ZM309.905 260.27L315.791 258.116C317.803 257.38 319.13 256.459 319.772 255.355C320.41 254.239 320.493 253.036 320.022 251.747C319.676 250.802 319.143 250.052 318.423 249.496C317.703 248.94 316.845 248.611 315.849 248.509C314.865 248.403 313.795 248.561 312.639 248.984L306.586 251.199L309.905 260.27ZM304.798 246.313L310.151 244.355C311.14 243.993 311.955 243.499 312.596 242.874C313.244 242.233 313.673 241.51 313.881 240.702C314.101 239.891 314.047 239.035 313.717 238.134C313.266 236.9 312.462 236.066 311.308 235.631C310.164 235.193 308.792 235.266 307.191 235.852L301.705 237.859L304.798 246.313ZM341.775 255.302L334.038 258.133L333.331 219.67L342.636 216.265L366.903 246.107L359.166 248.938L340.972 225.722L340.705 225.82L341.775 255.302ZM336.38 242.056L354.655 235.369L356.717 241.005L338.442 247.692L336.38 242.056ZM371.014 244.603L358.518 210.454L365.738 207.812L370.894 221.902L385.551 216.539L380.395 202.449L387.598 199.813L400.094 233.962L392.89 236.598L387.729 222.491L373.072 227.854L378.234 241.961L371.014 244.603ZM431.18 203.227C432.543 206.951 432.996 210.377 432.54 213.506C432.096 216.631 430.914 219.326 428.995 221.591C427.083 223.841 424.621 225.517 421.608 226.619C418.573 227.73 415.598 228.037 412.681 227.541C409.764 227.046 407.128 225.748 404.771 223.648C402.415 221.548 400.557 218.642 399.199 214.929C397.836 211.205 397.377 207.781 397.822 204.656C398.267 201.531 399.445 198.844 401.357 196.594C403.265 194.333 405.736 192.647 408.771 191.536C411.783 190.434 414.748 190.131 417.665 190.626C420.588 191.107 423.228 192.397 425.585 194.497C427.952 196.593 429.818 199.503 431.18 203.227ZM423.86 205.905C422.977 203.493 421.872 201.591 420.543 200.199C419.226 198.803 417.76 197.915 416.146 197.535C414.532 197.155 412.853 197.284 411.108 197.923C409.362 198.561 407.996 199.546 407.009 200.878C406.021 202.21 405.469 203.836 405.353 205.757C405.247 207.674 405.636 209.838 406.519 212.251C407.401 214.663 408.501 216.567 409.819 217.963C411.148 219.355 412.619 220.241 414.233 220.621C415.846 221.001 417.526 220.872 419.271 220.233C421.016 219.594 422.383 218.609 423.37 217.277C424.358 215.946 424.904 214.321 425.009 212.405C425.126 210.484 424.743 208.317 423.86 205.905ZM457.5 213.486L455.352 207.617L457.203 206.94C458.126 206.602 458.83 206.218 459.315 205.789C459.797 205.348 460.123 204.844 460.294 204.277C460.472 203.695 460.553 203.023 460.539 202.259L460.547 200.989L439.147 180.951L446.618 178.217L460.805 192.084L461.375 172.818L468.745 170.121L467.015 201.874C466.912 203.349 466.671 204.774 466.291 206.148C465.923 207.518 465.26 208.756 464.304 209.862C463.347 210.968 461.935 211.863 460.068 212.547L457.5 213.486ZM485.146 202.841L472.651 168.692L486.324 163.688C488.836 162.769 491.068 162.375 493.019 162.505C494.97 162.636 496.61 163.208 497.939 164.222C499.264 165.224 500.239 166.582 500.866 168.294C501.354 169.628 501.516 170.898 501.353 172.105C501.185 173.3 500.752 174.392 500.055 175.378C499.364 176.349 498.472 177.186 497.381 177.888L497.503 178.221C498.824 177.801 500.175 177.722 501.557 177.986C502.95 178.245 504.226 178.856 505.385 179.818C506.54 180.769 507.424 182.084 508.038 183.763C508.701 185.575 508.843 187.357 508.463 189.109C508.091 190.847 507.182 192.446 505.738 193.907C504.294 195.368 502.293 196.567 499.736 197.502L485.146 202.841ZM490.206 194.296L496.092 192.142C498.104 191.406 499.431 190.486 500.073 189.381C500.711 188.265 500.794 187.063 500.323 185.773C499.977 184.828 499.444 184.078 498.724 183.522C498.004 182.966 497.146 182.637 496.151 182.535C495.166 182.429 494.096 182.587 492.94 183.01L486.887 185.225L490.206 194.296ZM485.1 180.34L490.452 178.381C491.441 178.019 492.257 177.525 492.897 176.9C493.545 176.26 493.974 175.536 494.183 174.728C494.402 173.917 494.348 173.061 494.018 172.16C493.567 170.927 492.763 170.092 491.609 169.658C490.465 169.219 489.093 169.293 487.492 169.878L482.006 171.886L485.1 180.34ZM516.19 191.482L503.694 157.332L526.705 148.913L528.883 154.865L513.093 160.643L516.07 168.78L530.677 163.436L532.855 169.388L518.248 174.733L521.232 182.887L537.089 177.085L539.267 183.037L516.19 191.482ZM546.104 189.876L540.985 175.886L543.303 175.038C543.885 174.182 544.314 173.117 544.592 171.844C544.865 170.559 544.9 168.914 544.696 166.909C544.487 164.893 543.938 162.358 543.048 159.306L538.732 144.512L561.325 136.245L571.716 164.641L575.451 163.275L580.558 177.231L573.621 179.769L570.619 171.565L550.027 179.101L553.041 187.338L546.104 189.876ZM551.64 171.987L564.779 167.179L556.567 144.736L547.413 148.085L549.985 156.768C550.666 159.077 551.159 161.166 551.464 163.033C551.78 164.896 551.945 166.569 551.958 168.052C551.978 169.519 551.872 170.831 551.64 171.987Z" fill="#E2B93B"/>
</g>
</svg>
