<svg width="595" height="466" viewBox="0 0 595 466" fill="none" xmlns="http://www.w3.org/2000/svg">
<g opacity="0.3">
<rect x="-407.51" y="518.557" width="1496" height="130" transform="rotate(-20.098 -407.51 518.557)" stroke="#E2B93B" stroke-width="7"/>
<path d="M32.1925 446.581L19.697 412.431L26.917 409.789L32.0726 423.879L46.7295 418.516L41.5739 404.426L48.7772 401.791L61.2728 435.94L54.0694 438.576L48.9077 424.469L34.2508 429.832L39.4126 443.939L32.1925 446.581ZM73.1117 431.608L65.3747 434.439L64.668 395.976L73.9724 392.571L98.2401 422.413L90.5031 425.244L72.309 402.029L72.0422 402.126L73.1117 431.608ZM67.7165 418.362L85.9917 411.675L88.054 417.311L69.7788 423.998L67.7165 418.362ZM113.218 416.933L100.722 382.783L114.195 377.853C116.785 376.906 119.173 376.593 121.358 376.915C123.539 377.226 125.427 378.08 127.022 379.475C128.623 380.855 129.839 382.679 130.669 384.947C131.499 387.215 131.742 389.395 131.398 391.487C131.054 393.579 130.131 395.448 128.629 397.095C127.137 398.737 125.08 400.038 122.456 400.998L113.869 404.14L111.752 398.354L119.172 395.639C120.561 395.131 121.619 394.473 122.344 393.665C123.077 392.843 123.509 391.922 123.64 390.903C123.779 389.869 123.643 388.791 123.232 387.668C122.817 386.534 122.227 385.629 121.462 384.95C120.704 384.257 119.784 383.844 118.702 383.711C117.615 383.566 116.372 383.75 114.971 384.263L110.102 386.044L120.438 414.291L113.218 416.933ZM145.562 405.098L137.825 407.929L137.119 369.466L146.423 366.061L170.691 395.903L162.954 398.734L144.76 375.518L144.493 375.616L145.562 405.098ZM140.167 391.852L158.442 385.164L160.505 390.8L142.229 397.488L140.167 391.852ZM195.206 361.767L187.902 364.44C187.423 363.544 186.844 362.804 186.164 362.221C185.48 361.627 184.72 361.186 183.884 360.9C183.049 360.613 182.157 360.485 181.211 360.517C180.275 360.544 179.319 360.736 178.34 361.094C176.573 361.741 175.194 362.743 174.204 364.102C173.209 365.449 172.656 367.088 172.543 369.02C172.427 370.941 172.802 373.085 173.668 375.453C174.559 377.887 175.669 379.8 176.997 381.192C178.337 382.58 179.817 383.457 181.438 383.821C183.059 384.186 184.731 384.053 186.454 383.423C187.421 383.069 188.269 382.614 188.998 382.057C189.738 381.496 190.341 380.854 190.807 380.128C191.269 379.392 191.581 378.591 191.743 377.725C191.916 376.855 191.919 375.934 191.752 374.961L199.068 372.322C199.453 373.959 199.533 375.643 199.31 377.376C199.094 379.094 198.562 380.757 197.714 382.366C196.873 383.959 195.701 385.409 194.2 386.714C192.706 388.005 190.864 389.051 188.674 389.852C185.628 390.967 182.652 391.274 179.747 390.774C176.853 390.27 174.233 388.966 171.887 386.862C169.553 384.754 167.707 381.844 166.348 378.131C164.985 374.407 164.526 370.983 164.971 367.858C165.416 364.733 166.589 362.048 168.49 359.802C170.386 357.545 172.835 355.867 175.837 354.769C177.815 354.045 179.751 353.652 181.644 353.589C183.549 353.523 185.352 353.783 187.054 354.37C188.752 354.946 190.293 355.851 191.677 357.084C193.072 358.313 194.248 359.874 195.206 361.767ZM230.514 348.848L223.211 351.52C222.732 350.624 222.152 349.884 221.472 349.301C220.788 348.707 220.029 348.267 219.193 347.98C218.357 347.693 217.466 347.566 216.519 347.597C215.584 347.624 214.627 347.817 213.649 348.175C211.881 348.821 210.502 349.824 209.512 351.182C208.517 352.529 207.964 354.168 207.851 356.1C207.735 358.021 208.11 360.165 208.976 362.533C209.867 364.968 210.977 366.881 212.305 368.273C213.645 369.661 215.125 370.537 216.746 370.902C218.367 371.267 220.039 371.134 221.762 370.503C222.729 370.15 223.577 369.694 224.306 369.138C225.047 368.577 225.65 367.934 226.115 367.209C226.577 366.473 226.889 365.672 227.051 364.806C227.224 363.936 227.227 363.014 227.061 362.042L234.376 359.403C234.761 361.039 234.842 362.724 234.618 364.457C234.402 366.174 233.87 367.838 233.022 369.446C232.181 371.04 231.01 372.489 229.508 373.795C228.014 375.085 226.172 376.131 223.982 376.932C220.936 378.047 217.961 378.354 215.055 377.854C212.161 377.351 209.541 376.047 207.195 373.943C204.861 371.835 203.015 368.924 201.656 365.212C200.294 361.488 199.835 358.063 200.279 354.938C200.724 351.813 201.897 349.128 203.798 346.882C205.694 344.625 208.144 342.948 211.145 341.849C213.124 341.125 215.06 340.732 216.953 340.67C218.857 340.603 220.66 340.863 222.362 341.451C224.06 342.027 225.601 342.931 226.985 344.164C228.38 345.393 229.557 346.954 230.514 348.848ZM231.317 334.998L240.221 331.74L258.021 351.242L258.421 351.096L259.43 324.711L268.334 321.453L280.83 355.602L273.826 358.165L265.693 335.938L265.41 336.041L264.644 361.335L259.876 363.08L242.936 344.17L242.652 344.274L250.816 366.584L243.812 369.147L231.317 334.998ZM311.912 324.868C313.275 328.592 313.728 332.018 313.272 335.147C312.827 338.272 311.645 340.967 309.726 343.232C307.814 345.482 305.352 347.158 302.34 348.261C299.305 349.371 296.329 349.679 293.413 349.183C290.496 348.687 287.859 347.389 285.503 345.289C283.146 343.19 281.289 340.283 279.93 336.57C278.568 332.846 278.109 329.422 278.553 326.297C278.998 323.172 280.177 320.485 282.089 318.235C283.996 315.974 286.468 314.288 289.502 313.178C292.515 312.075 295.48 311.772 298.396 312.268C301.32 312.748 303.96 314.039 306.316 316.138C308.684 318.234 310.549 321.144 311.912 324.868ZM304.592 327.546C303.709 325.134 302.604 323.232 301.275 321.84C299.957 320.444 298.492 319.556 296.878 319.176C295.264 318.796 293.585 318.925 291.839 319.564C290.094 320.203 288.728 321.188 287.74 322.52C286.753 323.852 286.201 325.478 286.084 327.399C285.979 329.315 286.368 331.48 287.25 333.892C288.133 336.304 289.233 338.208 290.551 339.604C291.879 340.996 293.35 341.882 294.964 342.262C296.578 342.642 298.258 342.513 300.003 341.874C301.748 341.236 303.114 340.251 304.102 338.919C305.089 337.587 305.636 335.963 305.741 334.046C305.858 332.125 305.474 329.959 304.592 327.546ZM310.331 312.835L308.153 306.883L336.199 296.62L338.377 302.573L327.923 306.399L338.24 334.595L331.103 337.206L320.786 309.01L310.331 312.835ZM353.314 329.08L340.818 294.93L354.291 290C356.881 289.053 359.269 288.74 361.454 289.062C363.635 289.373 365.523 290.227 367.117 291.622C368.719 293.002 369.935 294.826 370.764 297.094C371.594 299.362 371.837 301.542 371.494 303.634C371.15 305.726 370.227 307.595 368.724 309.241C367.233 310.884 365.175 312.185 362.552 313.145L353.965 316.287L351.847 310.501L359.268 307.786C360.657 307.278 361.715 306.62 362.44 305.812C363.173 304.989 363.605 304.069 363.736 303.05C363.875 302.016 363.738 300.938 363.328 299.815C362.913 298.681 362.323 297.775 361.558 297.097C360.8 296.404 359.88 295.991 358.798 295.857C357.711 295.713 356.468 295.897 355.067 296.409L350.198 298.191L360.534 326.438L353.314 329.08ZM383.715 317.955L371.22 283.806L394.231 275.386L396.409 281.339L380.618 287.117L383.595 295.254L398.202 289.909L400.381 295.862L385.774 301.207L388.757 309.361L404.615 303.558L406.793 309.511L383.715 317.955ZM412.466 307.435L399.971 273.286L407.191 270.644L412.346 284.734L427.003 279.371L421.848 265.281L429.051 262.645L441.547 296.794L434.343 299.43L429.181 285.323L414.525 290.687L419.686 304.793L412.466 307.435ZM435.004 260.467L442.207 257.831L450.066 279.308L450.349 279.204L457.248 252.328L463.567 250.015L476.063 284.165L468.843 286.806L460.978 265.313L460.728 265.405L453.752 292.328L447.499 294.616L435.004 260.467ZM469.532 247.832L476.736 245.197L484.594 266.673L484.878 266.57L491.776 239.693L498.096 237.381L510.591 271.53L503.371 274.172L495.507 252.679L495.257 252.77L488.281 279.694L482.028 281.982L469.532 247.832Z" fill="#E2B93B"/>
</g>
</svg>
